<svg xmlns="http://www.w3.org/2000/svg" width="232" height="258" viewBox="0 0 232 258" fill="none">
  <g clip-path="url(#clip0_295_730)">
    <path d="M143.211 103.841L158.147 168.881C158.721 171.38 157.324 173.894 154.983 174.769C154.778 174.849 154.562 174.916 154.338 174.967L74.2379 193.38C73.7625 193.492 73.2828 193.53 72.8176 193.502C70.6183 193.376 68.6648 191.818 68.1488 189.567L53.2126 124.527C52.5873 121.805 54.3003 119.066 57.0252 118.439L137.126 100.026C139.846 99.4008 142.584 101.116 143.211 103.841Z" fill="white"/>
    <g opacity="0.3">
      <path d="M138.717 112.859L153.294 173.53C153.398 173.954 153.433 174.38 153.416 174.8C153.218 174.882 153.01 174.952 152.794 175.008L75.4603 194.982C75.0017 195.102 74.5376 195.154 74.0884 195.143C73.9137 194.819 73.781 194.467 73.6906 194.089L59.1135 133.418C58.5014 130.875 60.1501 128.243 62.782 127.566L132.826 109.476C135.457 108.795 138.105 110.317 138.717 112.859Z" fill="#371A45"/>
    </g>
    <path d="M73.5415 194.805C70.4621 195.02 67.5893 192.964 66.8764 189.861L51.9379 124.821C51.1494 121.387 53.2993 117.952 56.7315 117.164L136.832 98.7517C138.488 98.3704 140.199 98.661 141.648 99.5693C143.097 100.477 144.105 101.891 144.486 103.548L159.425 168.589C160.213 172.022 158.063 175.458 154.631 176.246L74.5299 194.657C74.2003 194.734 73.8694 194.782 73.5415 194.805ZM138 101.216C137.805 101.229 137.611 101.258 137.418 101.303L57.3171 119.714C55.2918 120.18 54.0231 122.207 54.488 124.234L69.4265 189.274C69.8921 191.301 71.9173 192.569 73.9435 192.105L154.044 173.693C156.069 173.228 157.339 171.2 156.873 169.174L141.934 104.134C141.71 103.158 141.114 102.324 140.258 101.788C139.572 101.357 138.787 101.161 138 101.216Z" fill="#371A45"/>
    <path d="M87.4673 148.876C87.6596 151.53 87.4982 154.349 86.9549 157.336C85.8939 157.584 84.8279 157.814 83.767 158.019C70.1828 160.682 56.616 160.021 44.5794 156.402C31.5952 152.498 20.3907 145.154 12.8712 134.825C11.1792 132.501 10.0701 129.838 9.82229 127.039C9.59481 124.422 10.0968 122.103 11.2757 120.438C12.2566 119.054 13.7012 118.12 15.5762 117.834C17.0853 117.604 18.6311 117.877 19.9842 118.508C29.2374 122.8 38.0278 126.6 46.1028 129.639C48.0703 130.379 50.1064 130.92 52.1716 131.258C56.4722 131.964 60.9108 131.803 65.15 130.744C66.8471 130.321 68.5149 129.755 70.1291 129.039C71.5285 128.42 72.9179 127.734 74.3018 127.004C82.0908 132.757 86.8129 139.898 87.4673 148.876Z" fill="white"/>
    <g opacity="0.6">
      <path d="M15.4835 120.278C16.9926 120.047 18.5384 120.32 19.8916 120.951C29.1447 125.243 37.9351 129.043 46.0102 132.082C47.9776 132.822 50.0137 133.363 52.0789 133.702C52.7229 135.541 52.9847 137.489 53.0002 139.47C53.2309 136.659 53.0804 133.85 52.1731 131.258C50.1071 130.918 48.0709 130.377 46.1044 129.638C38.0293 126.599 29.2389 122.8 19.9857 118.508C18.6326 117.876 17.0868 117.603 15.5777 117.834C11.5731 118.44 9.54553 122.013 9.79904 126.595C10.2773 123.23 12.2252 120.771 15.4835 120.278Z" fill="white"/>
    </g>
    <path d="M73.1138 160.663C63.1774 161.357 53.3789 160.32 44.2152 157.564C30.5669 153.459 19.3883 145.844 11.8877 135.542C9.99839 132.947 8.8664 130.043 8.6139 127.145C8.11807 121.457 10.7792 117.329 15.3933 116.63C17.0889 116.374 18.8534 116.64 20.4959 117.402C30.468 122.03 38.9849 125.66 46.5327 128.499C54.0194 131.315 62.442 131.105 69.6399 127.925C70.9517 127.345 72.2901 126.692 73.7334 125.928C74.1458 125.71 74.6477 125.746 75.0245 126.024C86.0567 134.174 90.4728 144.783 88.151 157.554C88.0646 158.03 87.7037 158.41 87.232 158.52C82.5326 159.621 77.807 160.336 73.1138 160.663ZM16.2183 118.984C16.0631 118.995 15.9099 119.012 15.7579 119.035C11.8207 119.632 10.7373 123.506 11.036 126.934C11.2499 129.391 12.2243 131.872 13.8532 134.11C28.2697 153.91 57.1418 162.787 85.8937 156.332C87.7152 144.985 83.8795 135.847 74.1864 128.437C72.9483 129.078 71.7766 129.641 70.6227 130.151C62.8475 133.586 53.7555 133.815 45.6774 130.777C38.0726 127.916 29.5008 124.264 19.4729 119.61C18.4318 119.126 17.2929 118.909 16.2183 118.984Z" fill="#371A45"/>
    <path d="M27.9982 132.289C25.9438 129.396 24.59 124.952 27.3951 121.88L26.6461 116.689C26.4712 115.477 27.6456 114.4 28.9524 114.644C31.0859 115.043 33.4984 116.807 34.4118 120.207C34.7005 121.278 35.105 122.32 35.6909 123.282L39.7873 130.019L27.9982 132.289Z" fill="white"/>
    <g opacity="0.6">
      <path d="M28.9531 114.644C27.7206 114.414 26.6078 115.358 26.6307 116.482C27.0347 116.232 27.5348 116.109 28.0534 116.197C30.1753 116.551 32.5506 118.247 33.3758 121.577C33.6253 122.586 34.0176 123.561 34.566 124.463L37.324 128.998C37.8088 129.796 38.8055 130.208 39.7888 130.019L35.6924 123.283C35.1212 122.343 34.7062 121.329 34.4331 120.281C33.5333 116.834 31.1014 115.046 28.9531 114.644Z" fill="white"/>
    </g>
    <path d="M27.5418 132.613C24.9599 129.473 23.58 124.465 26.4984 121.059L26.1927 122.054C25.9237 120.335 25.6811 118.584 25.4304 116.862C25.1116 114.805 27.2105 113.027 29.1789 113.472C31.9261 114.004 34.0967 116.173 35.047 118.719C35.5626 120.167 35.7386 121.44 36.5054 122.716C37.8118 125.022 39.0902 127.347 40.2083 129.764C40.448 130.29 39.7282 130.736 39.3687 130.275C37.7364 128.166 36.2541 125.96 34.8088 123.733C33.9748 122.499 33.5453 120.846 33.0473 119.53C32.464 118.15 31.4016 116.928 30.0799 116.273C29.4675 116.025 28.6663 115.549 28.0761 116.006C27.898 116.164 27.8369 116.351 27.8626 116.498L28.1062 118.206C28.274 119.372 28.4449 120.538 28.5983 121.707C28.6476 122.082 28.5258 122.438 28.2925 122.701C27.115 123.8 26.6344 125.385 26.7515 127.008C26.8636 128.703 27.5103 130.436 28.4544 131.964C28.8236 132.553 27.9798 133.16 27.5418 132.613Z" fill="#371A45"/>
    <path d="M45.2927 157.603C44.9947 157.624 44.6906 157.513 44.4733 157.276C44.0964 156.863 44.1249 156.221 44.5378 155.844C51.4909 149.489 53.6278 141.522 51.0726 131.488C50.9344 130.946 51.2618 130.394 51.804 130.256C52.3455 130.118 52.8978 130.445 53.036 130.987C55.7549 141.663 53.3558 150.529 45.905 157.34C45.7294 157.501 45.5124 157.588 45.2927 157.603Z" fill="#371A45"/>
    <path d="M41.1484 158.062C41.2788 158.129 41.4023 158.194 41.5282 158.263L41.078 158.093C41.1019 158.082 41.1245 158.075 41.1484 158.062Z" fill="#0096F0"/>
    <path d="M41.9985 134.992C41.9101 134.964 41.8189 134.941 41.7307 134.916L41.7332 134.631C41.8935 134.683 42.014 134.883 41.9985 134.992Z" fill="#AD5833"/>
    <g opacity="0.3">
      <path d="M72 141.343C72.2823 141.329 71.964 140.827 71.946 140.57C71.9281 140.312 71.982 141.085 72 141.343C71.7615 142.35 71.4055 143.873 71.3432 144.109C70.7764 146.26 66.4295 148.443 61.7141 149.193C56.1491 150.079 50.9391 148.653 40.886 144.954C38.2297 143.977 35.5669 142.993 33.1105 141.651C31.2137 140.606 29.4634 139.362 27.6508 138.196C24.538 136.208 21.2236 134.459 18.3044 132.237C15.3853 130.015 12.8172 127.227 11.7757 123.873C11.4259 122.754 11.2672 121.597 11.2757 120.436C10.0968 122.102 9.594 124.42 9.82082 127.039C10.071 129.838 11.1778 132.501 12.8689 134.823C23.9001 149.969 44.5794 156.4 44.5794 156.4C57.5518 160.399 69.416 160.099 77.5958 159.055L77.6107 159.29C77.6198 159.21 77.6241 159.128 77.6332 159.049C77.8181 157.141 78.0379 155.204 78.88 153.445C79.7508 151.613 81.4225 149.973 83.5588 149.572C83.9137 149.504 84.2721 149.474 84.6271 149.473C86.5311 149.472 88.3967 150.367 89.9607 151.41C91.8166 152.653 93.5148 154.159 95.6559 154.932C93.3199 152.539 91.2967 149.883 89.343 147.182C91.7035 146.665 93.8379 146.934 95.0148 147.152C79.9372 143.347 72 141.343 72 141.343Z" fill="#371A45"/>
    </g>
    <path d="M183.596 121.823C180.227 129.036 171.035 134.038 158.413 137.641C149.963 140.051 139.974 141.832 129.167 143.231C124.83 132.026 123.515 122.009 125.287 113.214L133.685 112.711C134.975 112.771 136.263 112.801 137.563 112.803C142.301 112.82 147.123 112.47 152.008 111.767C157.575 110.975 163.242 109.719 168.989 108.019L176.526 115.142L183.596 121.823Z" fill="white"/>
    <path d="M183.595 121.824C180.226 129.037 171.034 134.04 158.412 137.64C156.945 136.223 155.629 134.665 154.597 132.906C153.063 130.286 152.226 127.31 151.656 124.327C151.1 121.417 150.777 118.433 151.132 115.493C151.286 114.229 151.575 112.97 152.009 111.768C157.575 110.975 163.24 109.718 168.99 108.02L183.595 121.824Z" fill="white"/>
    <g opacity="0.6">
      <path d="M152.369 126.595C151.813 123.685 151.491 120.701 151.845 117.761C151.999 116.496 152.288 115.238 152.722 114.036C158.289 113.242 163.954 111.986 169.703 110.288L183.04 122.893C183.238 122.542 183.426 122.187 183.595 121.825L168.99 108.019C163.24 109.717 157.575 110.974 152.009 111.767C151.574 112.97 151.286 114.229 151.132 115.492C150.777 118.432 151.1 121.416 151.656 124.327C151.994 126.094 152.43 127.857 153.044 129.546C152.781 128.572 152.558 127.584 152.369 126.595Z" fill="white"/>
    </g>
    <path d="M129.25 144.418C128.733 144.454 128.249 144.15 128.06 143.662C123.646 132.256 122.322 121.933 124.125 112.981C124.231 112.452 124.68 112.069 125.218 112.028L133.614 111.526C133.656 111.523 133.698 111.523 133.739 111.525C144.763 112.025 156.51 110.462 168.655 106.88C169.061 106.76 169.499 106.865 169.807 107.156L184.412 120.96C184.785 121.313 184.89 121.864 184.673 122.328C179.612 133.163 162.024 140.18 129.322 144.412C129.297 144.414 129.274 144.417 129.25 144.418ZM126.286 114.346C124.876 122.414 126.106 131.686 129.944 141.932C160.361 137.913 177.011 131.585 182.136 122.08L168.669 109.351C156.525 112.867 144.763 114.397 133.693 113.902L126.286 114.346Z" fill="#371A45"/>
    <path d="M158.371 138.66C158.086 138.68 157.794 138.577 157.583 138.353C151.118 131.52 148.193 118.363 151.563 111.278C151.798 110.785 152.39 110.575 152.883 110.809C153.376 111.045 153.587 111.635 153.352 112.13C150.337 118.466 153.145 130.78 159.021 136.991C159.397 137.388 159.38 138.015 158.983 138.391C158.809 138.555 158.592 138.645 158.371 138.66Z" fill="#371A45"/>
    <path d="M144.842 15.16C143.585 15.5389 142.81 16.6742 143.11 17.695L189.541 175.99C189.841 177.011 191.103 177.533 192.358 177.153C193.614 176.774 194.39 175.639 194.09 174.618L147.658 16.3226C147.359 15.3017 146.097 14.7804 144.842 15.16Z" fill="#FFBB4C"/>
    <g opacity="0.25">
      <path d="M191.806 175.272L145.375 16.9763C145.177 16.3035 145.449 15.5826 146.014 15.0596C145.643 15.0106 145.242 15.0386 144.842 15.1592C143.585 15.5381 142.81 16.6734 143.11 17.6943L189.541 175.99C189.841 177.011 191.102 177.532 192.358 177.152C192.787 177.023 193.157 176.805 193.45 176.534C192.66 176.43 192.011 175.967 191.806 175.272Z" fill="#000072"/>
    </g>
    <path d="M191.787 178.16C191.14 178.205 190.504 178.078 189.964 177.786C189.331 177.442 188.877 176.894 188.686 176.242L142.254 17.9463C141.818 16.4584 142.863 14.8255 144.584 14.306C145.499 14.029 146.465 14.1106 147.235 14.528C147.869 14.8715 148.322 15.4198 148.513 16.0721L194.946 174.367C195.382 175.856 194.337 177.489 192.616 178.008C192.341 178.09 192.063 178.14 191.787 178.16ZM145.099 16.0139C144.324 16.2471 143.805 16.902 143.964 17.4446L190.397 175.74C190.469 175.987 190.663 176.136 190.813 176.217C191.163 176.407 191.644 176.438 192.1 176.3C192.875 176.067 193.394 175.412 193.235 174.869L146.803 16.5738C146.73 16.3264 146.536 16.1777 146.386 16.0963C146.036 15.9068 145.555 15.8763 145.099 16.0139Z" fill="#371A45"/>
    <path d="M210.12 26.6544C211.247 27.9944 212.094 29.5517 212.627 31.2197C212.766 31.6494 212.893 32.0792 213.003 32.5094C213.566 34.6047 213.823 36.6626 213.65 38.661C213.477 40.6973 213.56 42.7566 214.096 44.7263C214.587 46.537 215.26 48.2438 216.158 49.8184C217.481 52.5093 217.206 54.4731 214.087 53.7935C210.623 52.9309 207.229 52.6991 203.926 53.3652C200.908 53.9743 198.16 55.4535 195.762 57.3841C192.967 59.6388 189.728 60.5206 185.947 59.7458C185.072 59.5643 184.187 59.4277 183.297 59.3168C174.101 58.2064 165.057 58.6354 157.204 62.8805C156.958 63.0119 156.665 63.0169 156.422 62.8895C155.717 62.5217 155.191 61.8934 154.953 61.1377L154.429 59.4707C154.411 59.414 154.397 59.3563 154.391 59.2957C154.307 58.7903 154.548 58.2784 155.003 58.0189C157.179 56.7943 159.497 56.0062 161.95 55.662C161.968 52.2874 160.35 46.6113 158.189 41.0604C158.158 41.0664 158.127 41.0717 158.095 41.0778C155.803 41.5165 153.535 42.2348 151.285 43.2004C151.117 43.2739 150.923 43.2481 150.779 43.1353C150.206 42.6718 149.782 42.0496 149.56 41.3461L149.004 39.577C148.84 39.0556 149.124 38.4967 149.641 38.3169C152.431 37.3515 155.032 36.5953 157.14 36.4057C156.751 31.6308 154.999 27.5882 152.98 23.1765C152.931 23.1792 152.879 23.1836 152.83 23.1863C152.797 23.109 152.759 23.0298 152.722 22.9497C150.148 23.0954 147.803 23.4923 145.825 24.2938C145.592 24.3842 145.334 24.3567 145.146 24.2084C144.851 23.9818 144.611 23.6959 144.444 23.3746C144.398 23.2813 144.362 23.1804 144.331 23.0821C144.301 22.9877 144.274 22.8884 144.255 22.7862L143.965 21.2951C143.847 20.6963 144.174 20.0997 144.742 19.8833C145.405 19.6292 146.068 19.3868 146.726 19.1585C146.756 19.1449 146.782 19.1369 146.812 19.1271C153.031 16.933 159.106 15.6192 164.873 16.1094L173.33 16.9949L173.962 17.0621L174.846 17.1533C177.353 17.4154 179.882 17.2875 182.344 16.7581C183.988 16.4024 185.794 15.9542 187.71 15.4969C188.03 15.4213 188.355 15.3438 188.683 15.2653C190.687 14.7964 192.802 14.3306 194.969 13.9723C197.543 13.5486 200.166 13.5208 202.731 13.9804C203.598 14.1354 204.467 14.3396 205.334 14.5903C207.093 15.1 208.375 16.6161 208.602 18.4344C208.7 19.2222 208.714 20.0445 208.615 20.9187C208.438 22.4949 208.623 24.1108 209.362 25.5103C209.581 25.9314 209.834 26.313 210.12 26.6544Z" fill="#D4F966"/>
    <path d="M196.53 44.6403L192.35 47.7919L185.719 39.2717L190.731 37.6046L173.347 25.0684L173.281 24.9566L176.912 26.3249C176.912 26.3249 179.415 24.4319 180.726 23.4315C181.199 23.0669 181.812 22.9785 182.37 23.2034L194.465 28.4282C195.111 28.7223 195.56 29.3473 195.62 30.0598C195.976 32.856 196.868 39.9194 197.236 42.8206C197.336 43.635 197.04 44.2578 196.53 44.6403ZM181.236 36.5943L176.236 38.2466L193.519 50.7284L189.934 49.6343L186.059 52.562C185.596 52.8987 184.992 52.9593 184.473 52.7295L172.086 47.3939C171.637 47.1956 171.331 46.7532 171.26 46.1752C170.935 43.5219 169.973 35.8806 169.612 33.045C169.529 32.362 169.71 31.7799 170.086 31.4938L174.605 28.0741L181.236 36.5943Z" fill="#171717"/>
    <path d="M156.93 63.97C156.599 63.9931 156.265 63.926 155.963 63.7687C155.022 63.2776 154.328 62.4495 154.01 61.4369L153.486 59.7698C153.172 58.7715 153.606 57.6732 154.517 57.1593C156.53 56.0233 158.684 55.2404 160.932 54.8263C160.735 51.9248 159.514 47.3384 157.567 42.2005C155.636 42.621 153.659 43.2633 151.676 44.1137C151.17 44.3321 150.589 44.2522 150.16 43.9076C149.431 43.3198 148.897 42.5376 148.617 41.6444L148.061 39.8791C147.734 38.837 148.286 37.7404 149.32 37.3833C152.174 36.3956 154.308 35.8118 156.058 35.5445C155.58 31.6346 154.165 28.1747 152.363 24.2074C149.919 24.3811 147.944 24.7761 146.317 25.4395C145.747 25.6716 145.099 25.5786 144.626 25.1962C143.934 24.639 143.458 23.8513 143.287 22.9782L142.994 21.4881C142.782 20.4116 143.37 19.3488 144.392 18.9609C152.583 15.8491 159.119 14.6306 164.959 15.1257L174.95 16.1706C177.381 16.4249 179.799 16.2986 182.137 15.794C183.352 15.5324 184.659 15.2165 186.042 14.8828C188.701 14.2407 191.716 13.5129 194.811 13.0011C197.593 12.5405 200.317 12.5442 202.909 13.0104C203.823 13.1752 204.733 13.3874 205.614 13.6425C207.752 14.2617 209.312 16.0958 209.588 18.3155C209.701 19.2297 209.706 20.119 209.602 21.0344C209.431 22.5469 209.652 23.937 210.241 25.0536C210.43 25.4118 210.645 25.7351 210.88 26.0145C212.083 27.445 212.988 29.0947 213.572 30.9174C214.495 33.8008 214.845 36.3612 214.641 38.7456C214.456 40.8923 214.591 42.7633 215.054 44.4671C215.541 46.2603 216.202 47.8954 217.02 49.3265C217.03 49.3444 217.04 49.3623 217.049 49.3802C218.062 51.4386 218.178 52.9921 217.392 53.9976C216.714 54.8643 215.533 55.1205 213.879 54.761C210.297 53.8688 207.116 53.7318 204.125 54.3344C201.473 54.8694 198.869 56.1548 196.387 58.156C193.277 60.6636 189.699 61.5242 185.753 60.7162C184.941 60.5497 184.075 60.4101 183.181 60.3019C172.518 59.0128 164.414 60.1082 157.678 63.751C157.441 63.8795 157.186 63.9521 156.93 63.97ZM158.121 40.0743C158.549 40.0444 158.953 40.2958 159.112 40.7033C161.561 46.9963 162.957 52.4516 162.94 55.6693C162.938 56.1614 162.574 56.5768 162.088 56.6455C159.768 56.9704 157.547 57.7239 155.489 58.8855C155.388 58.9427 155.339 59.0651 155.374 59.1754L155.898 60.8425C156.049 61.3238 156.369 61.7224 156.804 61.9724C163.903 58.156 172.363 57.0009 183.415 58.3371C184.363 58.4516 185.283 58.5998 186.147 58.7773C189.534 59.4707 192.476 58.7641 195.141 56.6157C197.873 54.4132 200.763 52.9929 203.73 52.395C207.015 51.7324 210.481 51.8767 214.326 52.8339C215.305 53.0467 215.734 52.9008 215.829 52.7791C215.997 52.5651 215.988 51.7247 215.283 50.2842C214.389 48.714 213.668 46.9324 213.141 44.9884C212.616 43.0565 212.46 40.9598 212.665 38.5776C212.847 36.4597 212.526 34.1521 211.684 31.5234C211.18 29.9476 210.398 28.524 209.362 27.2912C209.036 26.9039 208.742 26.4626 208.487 25.9792C207.711 24.5081 207.416 22.7215 207.632 20.812C207.718 20.0538 207.714 19.3174 207.62 18.5594C207.443 17.1276 206.438 15.9451 205.061 15.5462C204.246 15.3103 203.404 15.1135 202.556 14.9611C200.187 14.5341 197.689 14.5332 195.132 14.9565C192.109 15.4571 189.131 16.1755 186.504 16.8098C185.109 17.1466 183.791 17.4649 182.553 17.732C180.01 18.2802 177.382 18.4181 174.743 18.142L164.771 17.0989C159.257 16.632 152.997 17.8111 145.093 20.814C144.979 20.8575 144.911 20.9835 144.935 21.1069L145.228 22.5971C145.299 22.9559 145.477 23.284 145.736 23.5378C147.688 22.7698 150.045 22.328 152.933 22.1905C153.337 22.1708 153.713 22.3995 153.881 22.7677C156.047 27.4958 157.734 31.4966 158.128 36.3291C158.172 36.8712 157.771 37.3471 157.23 37.3965C155.49 37.5527 153.182 38.1439 149.967 39.2565L150.505 41.0516C150.639 41.477 150.872 41.86 151.185 42.1718C153.481 41.2084 155.774 40.5092 158.007 40.0907C158.045 40.0819 158.084 40.0769 158.121 40.0743Z" fill="#D4F966"/>
    <g opacity="0.25">
      <path d="M213.424 20.0116L213.661 20.012C213.665 20.0897 213.663 20.1648 213.663 20.2435C213.584 20.1641 213.505 20.0854 213.424 20.0116Z" fill="#000072"/>
    </g>
    <path d="M144.785 18.738C147.948 18.5171 150.334 15.7719 150.113 12.6064C149.892 9.44082 147.148 7.05366 143.984 7.2745C140.821 7.49535 138.435 10.2406 138.656 13.4061C138.877 16.5717 141.621 18.9588 144.785 18.738Z" fill="#31DB82"/>
    <g opacity="0.25">
      <path d="M148.68 10.7094C148.676 10.7483 148.677 10.786 148.673 10.8249C148.383 13.4455 146.012 15.3323 143.377 15.0406C141.626 14.8462 140.204 13.7368 139.528 12.2463C139.307 14.8196 141.185 17.1158 143.781 17.4041C146.416 17.6959 148.787 15.809 149.077 13.1885C149.175 12.3097 149.021 11.4617 148.68 10.7094Z" fill="#000072"/>
    </g>
    <path d="M144.854 19.7271C141.819 19.9389 138.915 18.0557 137.963 15.0277C137.423 13.3115 137.584 11.4877 138.415 9.89212C139.246 8.29649 140.649 7.12046 142.364 6.58061C145.905 5.46542 149.693 7.44216 150.807 10.9848C151.921 14.5283 149.947 18.3175 146.405 19.432C145.891 19.5945 145.37 19.6911 144.854 19.7271ZM144.054 8.26285C143.689 8.28832 143.323 8.35638 142.959 8.47137C141.748 8.85244 140.758 9.68226 140.171 10.8083C139.584 11.9343 139.471 13.2218 139.852 14.4332C140.233 15.6446 141.062 16.6355 142.189 17.2225C143.314 17.8097 144.6 17.923 145.812 17.5419C148.312 16.7558 149.705 14.0806 148.919 11.5792C148.246 9.44217 146.196 8.11331 144.054 8.26285Z" fill="#371A45"/>
    <path d="M143.434 11.6661C144.501 10.9559 145.072 9.93701 144.708 9.39034C144.345 8.84367 143.185 8.97623 142.118 9.68641C141.051 10.3966 140.48 11.4155 140.844 11.9622C141.207 12.5088 142.367 12.3763 143.434 11.6661Z" fill="white"/>
    <path d="M164.841 109.111C165.72 108.448 166.282 107.348 167.203 106.216C168.282 104.888 170.08 104.415 171.687 105.002C172.383 105.257 173.057 105.544 173.71 105.861C175.226 106.598 176.425 107.849 177.051 109.414C178.858 113.934 176.576 117.425 173.228 116.741C171.597 115.921 170.559 114.653 169.936 113.07L164.841 109.111Z" fill="white"/>
    <g opacity="0.6">
      <path d="M168.273 109.617C169.352 108.289 171.151 107.816 172.757 108.404C173.453 108.658 174.128 108.945 174.78 109.262C175.986 109.849 176.985 110.763 177.661 111.9C177.596 111.125 177.402 110.29 177.051 109.414C176.425 107.849 175.226 106.598 173.71 105.861C173.057 105.544 172.383 105.257 171.687 105.002C170.08 104.415 168.282 104.888 167.203 106.216C166.283 107.348 165.72 108.448 164.841 109.111L167.257 110.989C167.567 110.556 167.888 110.091 168.273 109.617Z" fill="white"/>
    </g>
    <path d="M164.127 108.162C164.745 107.715 165.507 106.417 166.239 105.519C167.002 104.551 168.139 103.867 169.354 103.65C170.339 103.461 171.505 103.599 172.39 104.009L173.185 104.346C174.904 104.966 176.578 106.143 177.54 107.759C178.667 109.678 179.168 111.96 178.672 114.189C178.021 116.82 175.69 118.459 172.992 117.906C171.991 117.532 171.175 116.676 170.511 115.865C169.921 115.091 169.509 114.22 169.245 113.344C169.125 112.949 169.349 112.532 169.744 112.413C170.099 112.305 170.472 112.475 170.63 112.798C171.3 114.144 172.378 115.167 173.763 115.68L173.467 115.577C175.226 115.932 176.335 114.627 176.47 112.973C176.659 110.073 175.099 107.45 172.254 106.534C171.912 106.408 171.248 106.066 170.928 106.017C169.743 105.721 168.511 106.299 167.859 107.307C167.133 108.246 166.596 109.258 165.549 110.067C164.27 110.991 162.874 109.132 164.127 108.162Z" fill="#371A45"/>
    <path d="M174.519 117.199C174.721 121.612 177.443 126.062 180.938 126.298C189.634 122.67 184.95 102.333 174.373 106.232C179.211 109.925 178.646 116.382 174.519 117.199Z" fill="white"/>
    <g opacity="0.3">
      <path d="M180.905 120.908C178.94 120.699 177.197 118.895 176.08 116.512C175.638 116.841 175.117 117.081 174.519 117.199C174.721 121.612 177.443 126.062 180.938 126.298C185.4 124.436 186.338 118.176 184.766 113.048C184.769 116.571 183.593 119.754 180.905 120.908Z" fill="#371A45"/>
    </g>
    <path d="M181.022 127.483C180.968 127.486 180.913 127.486 180.86 127.483C176.486 127.188 173.548 121.944 173.334 117.253C173.307 116.666 173.714 116.147 174.29 116.032C175.819 115.73 176.334 114.446 176.506 113.708C176.934 111.868 176.218 109.133 173.655 107.175C173.31 106.912 173.136 106.482 173.201 106.053C173.265 105.624 173.558 105.265 173.965 105.115C178.752 103.351 183.274 105.858 185.489 111.504C187.789 117.365 186.878 125.108 181.397 127.394C181.277 127.444 181.15 127.474 181.022 127.483ZM175.786 118.046C176.246 121.608 178.403 124.708 180.748 125.081C184.535 123.24 185.133 117.104 183.277 112.373C182.712 110.932 180.738 106.792 176.817 106.927C178.621 109.078 179.395 111.775 178.82 114.248C178.404 116.036 177.301 117.395 175.786 118.046Z" fill="#371A45"/>
    <g opacity="0.25">
      <path d="M143.332 112.183L143.522 112.255C143.484 112.172 143.412 112.125 143.332 112.183Z" fill="#000072"/>
    </g>
    <g opacity="0.3">
      <path d="M173.045 118.011C172.782 117.287 172.399 116.415 171.835 115.485C171.28 114.571 170.695 113.838 170.181 113.276C170.85 115.139 171.289 117.078 171.496 119.043C171.546 119.546 171.581 120.08 171.353 120.542C171.139 120.983 170.719 121.298 170.298 121.572C168.381 122.828 166.196 123.615 164.014 124.335C157.327 126.542 156.822 127.082 149.075 128.173C147.592 128.381 144.391 128.782 140.41 128.408C137.484 128.134 136.415 127.654 135.664 127.185C135.664 127.185 134.874 126.691 131.915 123.561C131.068 122.899 127.688 120.106 127.07 115.35C126.773 113.062 127.225 111.168 127.609 110.021C127.123 111.063 126.645 112.106 126.173 113.153L125.288 113.215C125.061 114.25 124.881 115.3 124.747 116.368C123.497 119.229 122.289 122.109 121.133 125.007C120.594 126.356 120.062 127.716 119.758 129.136C119.513 130.273 119.415 131.438 119.314 132.596C118.904 137.418 118.491 142.242 118.082 147.069C119.933 143.977 121.965 141 124.16 138.144C124.885 137.202 125.676 136.243 126.556 135.426C127.665 134.408 128.92 133.609 130.388 133.339C132.681 132.921 135.047 133.921 136.805 135.448C138.366 136.806 139.533 138.54 140.635 140.3C140.775 140.522 140.91 140.741 141.046 140.96L141.217 140.196C145.835 139.9 151.566 139.128 157.939 137.305C165.595 135.115 171.737 132.107 176.234 129.47C175.17 125.651 174.108 121.831 173.045 118.011Z" fill="#371A45"/>
    </g>
    <g opacity="0.25">
      <path d="M143.384 112.588C143.331 112.588 143.273 112.585 143.221 112.59C143.274 112.602 143.332 112.604 143.384 112.588Z" fill="#000072"/>
    </g>
    <path d="M180.286 213.382C181.271 216.311 181.058 219.548 178.122 221.228C169.274 226.294 160.095 231.176 149.869 235.473C147.222 236.279 144.994 235.401 143.654 232.775C140.506 226.759 137.241 220.669 133.857 214.51C130.616 208.615 127.37 202.849 124.126 197.212L124.124 197.208C123.878 196.785 123.639 196.364 123.395 195.945L118.002 196.671L114.55 197.133C111.962 205.556 112.561 225.293 109.119 243.57C108.669 245.947 106.957 247.879 104.679 248.688C95.9839 251.764 84.2921 250.818 73.0424 248.034C69.4088 246.955 67.2384 243.097 67.4383 239.414C67.6218 235.817 70.0746 232.375 75.6291 231.859L73.5417 183.687C73.2606 180.346 73.0186 177.089 72.8187 173.915C72.5066 168.892 72.2912 164.082 72.1843 159.486C72.0197 152.462 72.0957 145.944 72.4203 139.934L73.6641 122.201C91.1973 118.559 108.726 114.919 126.256 111.278C128.19 115.332 130.121 119.387 132.056 123.441C136.049 130.752 140.036 139.145 144.017 148.603C145.265 151.565 146.515 154.634 147.762 157.806C148.479 159.634 149.2 161.497 149.916 163.394L168.812 207.754C169.367 207.522 173.258 205.968 176.346 207.88C177.907 208.847 179.492 211.012 180.286 213.382Z" fill="white"/>
    <path d="M72.9368 139.965C72.8046 154.315 73.6011 168.645 74.8455 182.934C75.7125 199.214 76.3477 215.512 76.8662 231.808C76.886 232.468 76.39 233.025 75.7456 233.093C71.4464 233.425 68.2416 236.245 68.7087 240.681C68.9767 243.293 70.6271 245.905 73.1722 246.761C82.9785 249.201 94.6328 250.783 104.338 247.474C106.224 246.796 107.654 245.066 107.927 243.078C107.97 242.847 108.239 241.269 108.289 240.995C109.236 235.419 109.826 229.801 110.306 224.15C110.689 219.627 110.982 215.088 111.344 210.533C111.774 205.891 112.047 201.329 113.339 196.761C113.486 196.271 113.906 195.936 114.384 195.876L123.226 194.687C123.751 194.611 124.249 194.875 124.495 195.31L130.577 206.105C135.037 213.85 140.404 224.061 144.656 231.953C145.746 234.252 147.405 234.844 149.376 234.303C158.868 230.318 168.039 225.531 176.978 220.419C181.692 218.269 179.071 211.573 175.935 209.134C174.072 207.821 171.529 208.055 169.309 208.924C168.664 209.195 167.922 208.892 167.647 208.252C161.347 193.618 154.62 177.9 148.546 163.227C143.603 149.747 137.74 136.668 131.661 123.66C131.555 123.433 131.653 123.164 131.88 123.057C132.089 122.959 132.335 123.036 132.456 123.226C140.103 135.476 145.518 148.938 150.817 162.321C154.194 170.251 157.632 178.161 161.012 186.089C163.244 191.366 167.776 201.971 169.982 207.258L168.328 206.583C171.07 205.482 174.361 205.2 176.981 206.784C178.92 208.018 180.26 210.008 181.15 212.074C182.836 215.943 182.437 220.592 178.237 222.627C169.214 227.787 159.953 232.62 150.361 236.646C147.435 237.683 144.344 236.605 142.811 233.867C142.136 232.649 140.89 230.293 140.212 229.039C139.106 226.967 133.889 217.264 132.909 215.43C130.191 210.526 125.08 201.56 122.298 196.582L123.567 197.205L114.724 198.395L115.767 197.509C115.153 199.55 114.832 201.781 114.542 203.997C113.101 217.005 112.898 230.201 110.476 243.115C110.145 246.117 108.067 248.82 105.212 249.83C102.684 250.711 100.061 251.266 97.4347 251.557C89.9156 252.37 82.3429 251.386 75.0028 249.775C74.0206 249.515 72.4002 249.257 71.4629 248.744C67.2533 246.701 65.2599 241.442 66.6047 237.066C67.761 233.119 71.6292 230.925 75.5173 230.63C75.518 230.629 74.3975 231.915 74.3975 231.915C73.5065 216.132 72.8188 200.342 72.2125 184.546C72.1583 183.393 72.0139 181.39 71.9234 180.26C70.9756 166.837 70.6428 153.322 71.9078 139.908C71.935 139.624 72.1875 139.415 72.4712 139.443C72.7378 139.469 72.9383 139.7 72.9368 139.965Z" fill="#371A45"/>
    <path d="M76.3463 230.813C78.6317 232.549 81.743 233.344 84.6003 233.254C85.3269 233.203 85.4776 234.267 84.7666 234.419C81.4351 235.004 77.9067 234.569 74.9134 232.91C73.3708 231.942 74.8832 229.724 76.3463 230.813Z" fill="#371A45"/>
    <path d="M103.361 223.867C93.1644 224.579 83.3709 222.808 74.8134 220.83C74.1301 220.673 73.7043 219.99 73.8627 219.307C74.0204 218.625 74.7006 218.197 75.3848 218.356C86.0817 220.828 98.7425 222.974 111.529 220.14C112.214 219.987 112.891 220.42 113.043 221.105C113.195 221.789 112.763 222.468 112.078 222.62C109.152 223.267 106.24 223.666 103.361 223.867Z" fill="#371A45"/>
    <path d="M169.912 208.391C167.927 211.179 164.932 213.095 161.674 214.006C160.973 214.172 160.645 213.167 161.307 212.888C163.93 211.739 166.4 209.674 167.715 207.119C168.561 205.507 170.888 206.849 169.912 208.391Z" fill="#371A45"/>
    <path d="M133.496 215.153C132.891 215.195 132.325 214.797 132.176 214.187C132.01 213.506 132.427 212.818 133.108 212.652C145.158 209.705 155.073 202.321 163.184 195.487C163.72 195.035 164.521 195.104 164.972 195.64C165.424 196.176 165.355 196.978 164.819 197.429C156.484 204.453 146.27 212.047 133.711 215.119C133.639 215.137 133.568 215.148 133.496 215.153Z" fill="#371A45"/>
    <path d="M97.218 193.658C107.477 196.026 118.804 196.097 128.286 191.084C131.367 189.447 134.161 187.273 136.561 184.6C136.801 184.302 137.248 184.264 137.532 184.521C137.778 184.742 137.822 185.105 137.651 185.377C136.645 186.975 135.405 188.426 134.047 189.752C125.664 197.664 112.999 199.248 102.133 196.567C100.323 196.099 98.5352 195.554 96.8104 194.851C96.4879 194.72 96.3324 194.35 96.4635 194.028C96.5853 193.727 96.9144 193.575 97.218 193.658Z" fill="#371A45"/>
    <g opacity="0.3">
      <path d="M96.6602 193.566C97.0807 193.741 97.436 193.988 97.7344 194.293C97.5312 194.247 97.3308 194.195 97.124 194.141L96.6602 193.566Z" fill="#371A45"/>
    </g>
    <g opacity="0.3">
      <path d="M173.411 220.461C171.825 221.297 170.097 221.826 168.376 222.332C164.752 223.398 161.102 224.373 157.423 225.253C156.937 225.368 156.429 225.483 155.93 225.34C155.367 225.182 154.907 224.72 154.505 224.257C152.271 221.7 150.828 218.515 149.457 215.375C146.131 207.744 143.027 200.016 140.154 192.207C139.121 189.397 138.107 186.485 137.799 183.565C139.458 181.38 140.439 179.609 140.8 178.937C139.756 179.72 138.729 180.438 137.723 181.102C137.724 181.06 137.724 181.018 137.727 180.976L137.679 181.13C133.61 183.812 129.911 185.57 127.078 186.723C127.078 186.723 114.759 191.735 101.666 190.865C100.509 190.788 98.3327 190.629 95.6446 189.749C93.7354 189.124 92.2384 188.355 91.2214 187.764C91.8904 189.076 93.1784 191.174 95.4602 192.901C95.3705 192.877 95.2795 192.856 95.1905 192.831C96.5312 194.256 96.7061 196.817 96.6064 198.928C95.9574 212.84 94.6613 226.683 93.1057 240.478C93.0244 241.171 92.943 241.885 92.6361 242.497C91.8373 244.101 89.8517 244.528 88.0994 244.69C85.3336 244.942 82.5408 244.95 79.7537 244.707C77.1405 244.48 74.4834 244.021 72.0946 242.806C69.9003 241.692 68.022 239.928 66.661 237.813C66.5464 241.534 68.7447 245.483 72.3068 246.654C83.3257 249.714 94.7357 250.926 103.139 248.003C105.34 247.235 106.965 245.318 107.352 242.922C110.217 225.078 109.355 205.764 111.427 196.886C116.404 196.923 119.72 196.06 119.72 196.06C121.707 195.541 123.537 194.846 125.225 194.036C128.583 199.997 131.949 206.09 135.314 212.316C138.833 218.828 142.232 225.263 145.515 231.617C146.915 234.39 149.105 235.386 151.633 234.657C161.355 230.614 170.041 225.922 178.399 221.027C181.172 219.405 181.25 216.061 180.181 212.988C178.763 216.206 176.396 218.894 173.411 220.461Z" fill="#371A45"/>
    </g>
    <g opacity="0.3">
      <path d="M73.3866 173.805C73.4273 173.891 73.4679 173.975 73.5093 174.06C73.5175 174.077 73.5344 174.088 73.5532 174.081C73.5698 174.075 73.5822 174.054 73.5741 174.037C73.5364 173.951 73.4988 173.865 73.4612 173.779C73.4529 173.76 73.4319 173.747 73.4108 173.755C73.392 173.761 73.3767 173.786 73.3866 173.805Z" fill="#371A45"/>
    </g>
    <g opacity="0.3">
      <path d="M144.018 148.605C145.266 151.568 146.516 154.636 147.762 157.809C147.719 157.824 147.678 157.838 147.634 157.854C123.548 165.863 98.5763 171.221 73.3259 173.802L72.8413 173.903C72.8339 173.906 72.8274 173.914 72.82 173.918C72.508 168.895 72.2925 164.084 72.1856 159.488C72.4073 159.414 72.6279 159.346 72.8478 159.278C83.8495 155.91 95.2801 154.21 106.661 152.522C110.467 151.957 114.276 151.39 118.085 150.824C123.024 150.092 127.971 149.358 132.948 148.953C136.631 148.658 140.325 148.541 144.018 148.605Z" fill="#371A45"/>
    </g>
    <path d="M88.0267 166.19L75.6532 169.034C73.4699 169.535 71.4983 168.78 71.4039 167.406L70.9616 160.958C70.8038 158.654 73.4753 156.255 77.1346 155.413L85.1293 153.575L88.0267 166.19Z" fill="white"/>
    <g opacity="0.3">
      <path d="M70.9007 162.625L71.0801 165.991C71.1468 167.246 73.095 167.899 75.2783 167.396L87.6518 164.552L86.6097 160.017L74.2362 162.861C72.9158 163.164 71.6848 163.044 70.9007 162.625Z" fill="#371A45"/>
    </g>
    <path d="M133.605 155.713L142.827 153.594C144.345 153.245 145.27 151.824 144.819 150.531L142.704 144.468C141.949 142.301 139.431 141.094 136.886 141.679L130.708 143.099L133.605 155.713Z" fill="white"/>
    <g opacity="0.3">
      <path d="M143.419 146.232C143.089 146.878 142.378 147.426 141.46 147.637L132.237 149.756L133.229 154.075L142.451 151.955C143.969 151.606 144.929 150.339 144.518 149.223L143.419 146.232Z" fill="#371A45"/>
    </g>
    <path d="M84.9231 152.674L89.0714 170.736C89.8908 174.303 93.2541 176.574 96.5844 175.808L130.103 168.103C133.433 167.338 135.469 163.826 134.649 160.259L130.501 142.197C129.682 138.629 126.318 136.359 122.988 137.124L89.469 144.829C86.1394 145.595 84.1037 149.107 84.9231 152.674Z" fill="white"/>
    <g opacity="0.3">
      <path d="M120.958 156.893C124.119 156.167 126.116 153.121 125.42 150.09C124.724 147.06 121.598 145.192 118.437 145.918C115.277 146.644 113.279 149.69 113.975 152.721C114.671 155.752 117.798 157.62 120.958 156.893Z" fill="#371A45"/>
    </g>
    <path d="M120.623 154.492C123.275 153.882 124.896 151.085 124.244 148.244C123.591 145.402 120.912 143.593 118.26 144.203C115.607 144.812 113.986 147.61 114.639 150.451C115.291 153.292 117.97 155.102 120.623 154.492Z" fill="#00AAFF"/>
    <path d="M120.623 154.492C123.275 153.882 124.896 151.085 124.244 148.244C123.591 145.402 120.912 143.593 118.26 144.203C115.607 144.812 113.986 147.61 114.639 150.451C115.291 153.292 117.97 155.102 120.623 154.492Z" fill="#00AAFF"/>
    <g opacity="0.3">
      <path d="M120.115 152.248C117.822 152.775 115.513 151.494 114.506 149.302C114.514 149.681 114.557 150.065 114.646 150.452C115.299 153.293 117.977 155.102 120.63 154.492C123.283 153.882 124.904 151.085 124.252 148.243C124.163 147.857 124.034 147.493 123.876 147.148C123.926 149.56 122.407 151.722 120.115 152.248Z" fill="#371A45"/>
    </g>
    <g opacity="0.3">
      <path d="M127.793 158.044L94.2742 165.749C90.9446 166.514 87.6381 164.493 86.8896 161.234L88.7159 169.186C89.4645 172.445 92.771 174.467 96.1006 173.701L129.62 165.996C132.949 165.231 135.042 161.968 134.293 158.709L132.467 150.757C133.216 154.016 131.124 157.279 127.793 158.044Z" fill="#371A45"/>
    </g>
    <path d="M95.7635 177.212C94.1643 177.323 92.5695 176.89 91.177 175.95C89.4905 174.811 88.3039 173.061 87.835 171.021L83.6867 152.959C82.712 148.715 85.1789 144.513 89.1854 143.592L122.704 135.888C126.712 134.967 130.764 137.67 131.738 141.914L135.887 159.975C136.355 162.015 136.051 164.109 135.031 165.87C133.994 167.659 132.345 168.892 130.388 169.342L96.8688 177.046C96.5019 177.131 96.1322 177.186 95.7635 177.212ZM86.161 152.39L90.3093 170.452C90.6331 171.862 91.4458 173.067 92.5969 173.845C93.7205 174.604 95.036 174.862 96.3001 174.572L129.819 166.867C131.083 166.576 132.154 165.77 132.834 164.596C133.531 163.393 133.736 161.955 133.412 160.544L129.264 142.483C128.603 139.604 125.915 137.758 123.272 138.364L89.7535 146.069C87.1113 146.675 85.5 149.511 86.161 152.39Z" fill="#371A45"/>
    <path d="M118.234 172.119C117.622 172.162 117.052 171.754 116.911 171.137L114.397 160.191L100.49 158.623C99.9552 158.563 99.5165 158.171 99.3957 157.646L96.1023 143.306C95.945 142.622 96.3721 141.941 97.055 141.783C97.7386 141.625 98.4192 142.053 98.5765 142.737L101.669 156.2L115.575 157.767C116.111 157.828 116.549 158.22 116.67 158.745L119.386 170.568C119.543 171.251 119.116 171.933 118.433 172.09C118.365 172.105 118.3 172.115 118.234 172.119Z" fill="#371A45"/>
    <path d="M119.977 155.657C118.693 155.746 117.412 155.399 116.295 154.643C114.941 153.729 113.989 152.325 113.614 150.688C113.238 149.051 113.482 147.372 114.301 145.958C115.133 144.522 116.458 143.531 118.03 143.17C119.601 142.808 121.225 143.122 122.6 144.051C123.954 144.965 124.906 146.369 125.282 148.006C125.657 149.643 125.413 151.322 124.594 152.736C123.762 154.172 122.437 155.163 120.866 155.524C120.57 155.592 120.274 155.636 119.977 155.657ZM119.057 145.151C118.872 145.164 118.686 145.192 118.502 145.234C117.507 145.463 116.665 146.098 116.13 147.022C115.581 147.969 115.419 149.103 115.674 150.215C115.929 151.327 116.57 152.276 117.477 152.89C118.362 153.487 119.395 153.691 120.391 153.462C121.385 153.233 122.228 152.598 122.763 151.674C123.312 150.727 123.473 149.593 123.218 148.481C122.963 147.369 122.323 146.419 121.415 145.806C120.694 145.32 119.874 145.094 119.057 145.151Z" fill="#371A45"/>
    <path d="M74.7906 170.445C73.4502 170.538 72.2099 170.241 71.3357 169.592C70.6201 169.061 70.1953 168.316 70.1387 167.493L69.6964 161.046C69.4914 158.066 72.5007 155.177 76.8513 154.177L84.8461 152.339C85.1743 152.265 85.5187 152.322 85.8045 152.501C86.0902 152.68 86.2923 152.965 86.3676 153.293L89.265 165.906C89.4223 166.59 88.9951 167.271 88.3122 167.429L75.9387 170.273C75.5519 170.361 75.1677 170.418 74.7906 170.445ZM84.1781 155.098L77.42 156.652C74.0874 157.418 72.1305 159.439 72.229 160.872L72.6713 167.319C72.6763 167.39 72.7357 167.468 72.8481 167.552C73.2698 167.866 74.2129 168.063 75.3699 167.796L86.5066 165.236L84.1781 155.098Z" fill="#371A45"/>
    <path d="M133.693 156.981C133.428 156.999 133.16 156.934 132.931 156.79C132.646 156.611 132.444 156.326 132.368 155.998L129.471 143.384C129.314 142.7 129.741 142.019 130.424 141.861L136.601 140.442C139.789 139.708 142.93 141.259 143.902 144.049L146.017 150.112C146.334 151.024 146.245 152.006 145.763 152.878C145.224 153.856 144.257 154.567 143.111 154.83L133.889 156.95C133.825 156.966 133.759 156.976 133.693 156.981ZM132.229 144.053L134.558 154.191L142.543 152.356C142.979 152.255 143.352 151.992 143.54 151.65C143.63 151.487 143.718 151.232 143.619 150.949L141.505 144.886C140.968 143.346 139.063 142.482 137.169 142.917L132.229 144.053Z" fill="#371A45"/>
    <g opacity="0.7">
      <path d="M120.811 149.695C121.714 149.488 122.266 148.535 122.044 147.568C121.821 146.6 120.909 145.984 120.006 146.192C119.103 146.4 118.551 147.352 118.773 148.32C118.996 149.287 119.908 149.903 120.811 149.695Z" fill="white"/>
    </g>
    <path d="M134.886 48.9571L137.672 48.2483C142.741 46.9592 147.929 50.1581 149.259 55.3924L153.885 73.6019C155.198 78.7726 152.257 84.0093 147.274 85.3719L141.735 86.886C142.988 75.4384 142.583 63.4299 134.886 48.9571Z" fill="white"/>
    <path d="M36.4428 73.9881L33.6565 74.697C28.5874 75.986 25.5565 81.2746 26.8867 86.5089L31.513 104.718C32.8264 109.889 37.9107 113.085 42.9401 111.902L48.5284 110.586C41.9633 101.126 36.5876 90.3813 36.4428 73.9881Z" fill="white"/>
    <g opacity="0.3">
      <path d="M40.2572 101.337C35.2285 102.521 30.1442 99.3247 28.8301 94.1541L31.5142 104.719C32.8276 109.89 37.9119 113.086 42.9413 111.902L48.5296 110.587C46.3909 107.504 44.38 104.284 42.6333 100.778L40.2572 101.337Z" fill="#371A45"/>
    </g>
    <g opacity="0.3">
      <path d="M145.871 74.4819C150.855 73.1193 153.797 67.8825 152.482 62.7119L155.167 73.277C156.48 78.4477 153.539 83.6844 148.555 85.047L143.017 86.5611C143.425 82.8311 143.655 79.041 143.516 75.1259L145.871 74.4819Z" fill="#371A45"/>
    </g>
    <path d="M103.284 128.688C131.917 121.406 149.161 92.0175 141.799 63.047C134.437 34.0765 105.258 16.4944 76.6244 23.7764C47.9911 31.0584 30.7473 60.4469 38.1091 89.4174C45.471 118.388 74.6508 135.97 103.284 128.688Z" fill="white"/>
    <g opacity="0.3">
      <path d="M101.21 120.557C73.93 127.494 46.1547 111.86 37.2252 85.3123C37.4642 86.6803 37.7566 88.0492 38.1045 89.4174C45.4649 118.388 74.6436 135.971 103.276 128.69C131.909 121.409 149.154 92.0221 141.794 63.0517C141.446 61.6836 141.049 60.3404 140.606 59.0245C145.433 86.6164 128.491 113.621 101.21 120.557Z" fill="#371A45"/>
    </g>
    <path d="M101.491 121.639C130.124 114.357 148.832 90.7289 143.276 68.8641C137.72 46.9993 110.004 35.1776 81.3705 42.4596C52.7372 49.7416 34.0296 73.3697 39.5858 95.2345C45.1419 117.099 72.858 128.921 101.491 121.639Z" fill="#371A45"/>
    <path d="M98.5115 108.834C72.4332 115.465 47.1196 106.249 38.6126 88.032C38.6594 90.4382 38.9766 92.8472 39.5832 95.2353C45.1385 117.1 72.8531 128.923 101.486 121.642C130.12 114.361 148.828 90.7343 143.272 68.8696C142.776 66.9187 142.102 65.049 141.268 63.2645C141.648 82.8925 124.018 102.349 98.5115 108.834Z" fill="#220F2D"/>
    <path d="M93.9899 131.467C68.0421 133.278 43.5742 116.096 36.8757 89.7302C29.3539 60.1278 47.0446 29.9903 76.3097 22.5485C105.577 15.1058 135.503 33.1371 143.024 62.7388C150.545 92.3412 132.855 122.479 103.59 129.921C100.389 130.735 97.176 131.245 93.9899 131.467ZM86.0863 23.5365C83.0476 23.7487 79.9879 24.2341 76.9353 25.0101C49.0263 32.1071 32.159 60.8595 39.3352 89.1044C46.5114 117.349 75.0555 134.554 102.964 127.459C130.873 120.362 147.74 91.6096 140.564 63.3646C134.173 38.2088 110.831 21.8093 86.0863 23.5365Z" fill="#371A45"/>
    <path d="M90.4955 124.698C80.1098 125.423 69.912 123.521 60.9586 119.09C48.6971 113.023 40.2325 102.944 37.1249 90.7129C34.0173 78.4815 36.6436 65.5833 44.5213 54.3945C52.3554 43.2666 64.4587 35.1577 78.5998 31.5618C92.7416 27.9659 107.245 29.309 119.44 35.3442C131.702 41.4118 140.167 51.49 143.274 63.7215C146.382 75.9529 143.756 88.8511 135.878 100.04C128.044 111.168 115.94 119.277 101.799 122.873C98.04 123.829 94.2554 124.436 90.4955 124.698ZM90.0821 32.2709C86.4719 32.5229 82.837 33.1057 79.2255 34.0242C65.6707 37.471 54.0829 45.225 46.5963 55.8583C39.1526 66.4307 36.6629 78.5872 39.5852 90.0879C42.5075 101.589 50.4973 111.081 62.0833 116.814C73.7357 122.58 87.618 123.858 101.174 120.411C114.728 116.964 126.316 109.21 133.803 98.5769C141.247 88.0045 143.736 75.848 140.814 64.3473C137.892 52.8466 129.902 43.3546 118.316 37.6214C109.768 33.392 100.02 31.5772 90.0821 32.2709Z" fill="#371A45"/>
    <path d="M89.3451 124.886C64.8506 126.595 43.2528 114.835 38.3528 95.5482C32.6337 73.0392 51.7908 48.6733 81.056 41.2323C95.1729 37.6436 109.526 38.4727 121.472 43.5684C133.536 48.7146 141.715 57.5902 144.502 68.5567C147.288 79.524 144.339 91.2284 136.195 101.514C128.131 111.698 115.915 119.284 101.799 122.873C97.6104 123.938 93.4368 124.6 89.3451 124.886ZM93.805 41.7325C89.7908 42.0127 85.7285 42.6654 81.6816 43.6939C53.7726 50.7908 35.4396 73.7716 40.8131 94.9223C45.4063 113.001 65.8598 123.98 89.1316 122.357C93.0866 122.081 97.119 121.442 101.173 120.411C114.753 116.958 126.484 109.686 134.205 99.9358C141.845 90.2857 144.629 79.3644 142.042 69.1825C139.455 59.0006 131.797 50.7335 120.477 45.9053C112.447 42.4801 103.263 41.0723 93.805 41.7325Z" fill="#371A45"/>
    <g opacity="0.4">
      <path d="M116.732 105.859C121.136 104.739 123.856 100.486 122.807 96.3592C121.759 92.2325 117.339 89.7951 112.935 90.915C108.531 92.035 105.811 96.2883 106.86 100.415C107.908 104.542 112.328 106.979 116.732 105.859Z" fill="white"/>
    </g>
    <g opacity="0.4">
      <path d="M127.566 86.2202C131.426 85.2384 133.81 81.5068 132.889 77.8852C131.969 74.2637 128.094 72.1237 124.234 73.1055C120.373 74.0872 117.99 77.8188 118.91 81.4404C119.831 85.0619 123.706 87.2019 127.566 86.2202Z" fill="white"/>
    </g>
    <g opacity="0.4">
      <path d="M52.8443 95.1414C35.6912 69.1768 64.1802 47.7206 96.1433 46.166C73.0462 57.38 50.5378 77.4573 52.8443 95.1414Z" fill="white"/>
    </g>
    <path d="M41.5807 113.389C36.4781 113.745 31.6145 110.272 30.2832 105.032L25.6568 86.8226C24.1571 80.9174 27.6051 74.9263 33.3439 73.4669L36.131 72.758C36.5095 72.6621 36.9097 72.7446 37.2181 72.9834C37.5265 73.2213 37.7095 73.5877 37.7128 73.9783C37.8603 90.7095 43.4994 101.113 49.5719 109.864C49.8114 110.209 49.8646 110.651 49.7145 111.043C49.5643 111.436 49.2289 111.728 48.8204 111.825L43.2313 113.14C42.6806 113.268 42.1291 113.351 41.5807 113.389ZM35.2057 75.6137L33.9688 75.9278C29.5868 77.0423 26.9613 81.6484 28.1162 86.1961L32.7426 104.406C33.8782 108.876 38.3225 111.684 42.6487 110.665L46.4373 109.774C40.9751 101.617 35.6809 91.1667 35.2057 75.6137Z" fill="#371A45"/>
    <path d="M141.824 88.1534C141.496 88.1763 141.167 88.0703 140.912 87.8526C140.593 87.5798 140.429 87.1665 140.474 86.7486C141.633 76.1601 141.622 64.3249 133.766 49.5535C133.583 49.2095 133.569 48.7996 133.726 48.4435C133.883 48.0873 134.197 47.8221 134.574 47.7262L137.361 47.0174C143.099 45.558 148.99 49.1751 150.49 55.0795L155.116 73.289C156.591 79.0925 153.223 85.0625 147.61 86.5973L142.072 88.1114C141.989 88.1342 141.907 88.1476 141.824 88.1534ZM136.749 49.7932C143.755 63.6856 144.092 75.3961 143.186 85.1739L146.94 84.1473C151.228 82.9753 153.792 78.385 152.656 73.9156L148.03 55.7061C146.875 51.1584 142.369 48.3645 137.986 49.4798L136.749 49.7932Z" fill="#371A45"/>
  </g>
  <defs>
    <clipPath id="clip0_295_730">
      <rect width="214" height="242" fill="white" transform="translate(0.835938 15.7461) rotate(-3.99293)"/>
    </clipPath>
  </defs>
</svg>