<svg width="46" height="45" viewBox="0 0 46 45" fill="none" xmlns="http://www.w3.org/2000/svg">
<g id="Group">
<g id="Group_2">
<path id="Vector" d="M16.1832 25.998C16.6101 26.2152 16.806 26.7182 16.6388 27.1664C14.9312 31.7473 12.4809 39.7858 13.0951 42.0663C14.4406 42.2236 20.1612 38.2405 25.7719 33.1952C25.888 33.0916 26.0241 33.0205 26.1689 32.983C26.3574 32.9344 26.5608 32.9456 26.7493 33.0192C26.8554 33.0617 37.4078 37.232 42.0562 38.238C42.0637 38.2405 42.0712 38.2418 42.0787 38.243C42.1386 36.5005 38.1393 29.4394 34.1425 23.5952C33.9041 23.247 33.9265 22.7826 34.1974 22.4593C37.1245 18.9618 40.26 15.0836 41.5344 13.3299C39.5348 13.0728 35.0737 12.7694 31.012 12.5785C30.6812 12.5635 30.3829 12.375 30.2268 12.0829C27.5681 7.11877 24.1867 2.77623 23.1332 2.97345C22.4792 3.10825 21.3308 4.91567 19.3811 12.9255C18.8643 15.0474 18.7732 15.3707 18.5161 15.6553C18.3651 15.8238 18.1553 15.9324 17.9332 15.9599C14.6716 16.3668 6.30479 17.5164 3.34277 18.3277C4.94423 19.8556 10.8795 23.3019 16.1832 25.998Z" fill="#D4F966"/>
</g>
<g id="Group_3" opacity="0.25">
<path id="Vector_2" d="M42.0429 38.2262C42.0429 38.2262 25.9122 27.358 23.8239 28.0183C21.7356 28.6773 13.083 42.0532 13.083 42.0532C16.774 42.7734 26.042 34.1919 26.042 34.1919L36.5182 37.9378C37.8139 37.6071 42.0429 38.2262 42.0429 38.2262Z" fill="#261E26"/>
</g>
<g id="Group_4" opacity="0.25">
<path id="Vector_3" d="M34.9168 23.0591C35.3998 22.3713 42.5558 13.5814 42.5558 13.5814L41.5323 13.3242C41.5323 13.3242 30.6304 19.1709 30.2809 20.0122C29.9327 20.8547 34.435 23.7468 34.9168 23.0591Z" fill="#261E26"/>
</g>
<g id="Group_5" opacity="0.4">
<path id="Vector_4" d="M6.21884 20.4014C6.21884 20.4014 19.1091 19.8559 21.2124 18.5191C23.3156 17.1835 24.1919 3.49928 24.0396 3.3832C23.8873 3.26711 22.2072 3.03994 22.0687 3.23591C21.9301 3.43063 18.4713 14.9117 17.8097 15.0178C17.1469 15.1239 4.98809 16.8552 4.62361 17.6378C4.25913 18.4205 4.19673 19.1619 6.21884 20.4014Z" fill="white"/>
</g>
<g id="Group_6">
<path id="Vector_5" d="M12.959 45C12.6918 45 12.4472 44.9688 12.2225 44.9076C11.2801 44.6493 10.5711 43.959 10.2753 43.0141C9.28796 39.8549 11.7894 31.9287 13.2361 27.8208C-0.124832 20.8895 -0.0424481 19.0309 0.00623231 17.9025C0.0474234 16.9651 0.639062 16.1537 1.55026 15.7868C3.86445 14.8544 12.552 13.6548 16.2505 13.1743C16.3266 12.8722 16.4078 12.5377 16.4852 12.2194C18.3525 4.55158 19.8079 0.563532 22.5802 0.048019C25.2077 -0.440033 28.4705 2.7941 32.2838 9.66552C33.4247 9.72544 35.2696 9.82779 37.1057 9.95386C43.3293 10.3832 44.5151 10.518 44.9507 12.2131C45.2415 13.3503 45.3364 13.7222 37.4464 23.1862C46.6445 36.8966 45.113 39.1746 44.5251 40.0483C44.2829 40.4078 43.343 41.5524 41.4195 41.1355C37.4352 40.273 29.7537 37.3684 26.8154 36.2313C20.2211 42.058 15.5702 45 12.959 45ZM5.85785 18.8724C8.37051 20.5574 12.758 23.0377 16.6699 25.0261C17.5886 25.4929 18.0105 26.5751 17.651 27.5412C15.901 32.237 14.2796 37.9551 14.0873 40.6225C16.2854 39.5615 20.8077 36.1901 25.0417 32.383C25.6133 31.8688 26.4272 31.7215 27.1437 32.0061C27.2373 32.0435 35.4917 35.3064 40.537 36.7306C39.4074 33.9396 36.2457 28.5997 33.2387 24.2047C32.7257 23.4546 32.7744 22.456 33.3573 21.7595C35.5766 19.1083 37.957 16.1874 39.4985 14.2078C37.2143 14.0068 33.9003 13.7984 30.9545 13.6598C30.2417 13.6261 29.5989 13.2204 29.2631 12.5913C27.2348 8.80799 24.641 5.17319 23.3491 4.23578C22.5952 5.30176 21.6153 8.30247 20.427 13.1805C19.8853 15.4061 19.773 15.8692 19.3174 16.3759C18.9903 16.7392 18.5447 16.9726 18.0604 17.0325C14.5367 17.4731 9.20432 18.2295 5.85785 18.8724Z" fill="#292A31"/>
</g>
</g>
</svg>
