<svg width="134" height="134" viewBox="0 0 134 134" fill="none" xmlns="http://www.w3.org/2000/svg">
<g id="Group">
<g id="Group_2">
<path id="Vector" d="M67.0023 130.305C101.964 130.305 130.305 101.964 130.305 67.0023C130.305 32.041 101.964 3.69922 67.0023 3.69922C32.041 3.69922 3.69922 32.041 3.69922 67.0023C3.69922 101.964 32.041 130.305 67.0023 130.305Z" fill="#D4F966"/>
</g>
<g id="Group_3">
<g id="Group_4" opacity="0.35">
<path id="Vector_2" d="M87.9603 78.8175C96.4072 78.8175 103.255 71.97 103.255 63.5232C103.255 55.0764 96.4072 48.2289 87.9603 48.2289C79.5135 48.2289 72.666 55.0764 72.666 63.5232C72.666 71.97 79.5135 78.8175 87.9603 78.8175Z" fill="#292A31"/>
</g>
<g id="Group_5">
<path id="Vector_3" d="M102.582 59.1495C100.441 55.349 97.2509 52.6022 93.6353 51.3526C90.0456 50.1067 86.1157 50.2546 82.818 51.7851C79.5314 53.3046 76.7993 56.0329 75.339 59.4859C73.864 62.9389 73.6237 67.0462 74.8769 71.2052C74.9102 71.3125 74.8474 71.4271 74.7401 71.4603C74.6625 71.4825 74.5849 71.4603 74.5331 71.4049C71.4535 68.1294 70.2742 62.9388 71.546 58.2326C72.7697 53.5079 76.3187 49.3525 80.9215 47.4375C85.4909 45.4596 90.9143 45.7554 95.1215 48.1103C99.3693 50.384 102.279 54.7131 102.697 59.1125C102.7 59.1495 102.674 59.179 102.641 59.1827C102.615 59.1827 102.593 59.168 102.582 59.1495Z" fill="#292A31"/>
</g>
</g>
<g id="Group_6" opacity="0.35">
<path id="Vector_4" d="M47.8123 53.8537C49.1864 53.8537 50.3003 52.7397 50.3003 51.3656C50.3003 49.9915 49.1864 48.8776 47.8123 48.8776C46.4382 48.8776 45.3242 49.9915 45.3242 51.3656C45.3242 52.7397 46.4382 53.8537 47.8123 53.8537Z" fill="#292A31"/>
</g>
<g id="Group_7" opacity="0.35">
<path id="Vector_5" d="M101.022 35.1137C101.757 35.1137 102.353 34.5179 102.353 33.7828C102.353 33.0478 101.757 32.4519 101.022 32.4519C100.287 32.4519 99.6914 33.0478 99.6914 33.7828C99.6914 34.5179 100.287 35.1137 101.022 35.1137Z" fill="#292A31"/>
</g>
<g id="Group_8" opacity="0.35">
<path id="Vector_6" d="M91.8856 35.0582C93.4394 35.0582 94.699 33.7986 94.699 32.2448C94.699 30.691 93.4394 29.4314 91.8856 29.4314C90.3319 29.4314 89.0723 30.691 89.0723 32.2448C89.0723 33.7986 90.3319 35.0582 91.8856 35.0582Z" fill="#292A31"/>
</g>
<g id="Group_9">
<g id="Group_10" opacity="0.35">
<path id="Vector_7" d="M4.89529 54.7248C6.25208 68.5145 12.0341 80.9991 20.7996 90.7517C21.3911 88.7849 23.2137 87.3505 25.3728 87.3505C28.0124 87.3505 30.1492 89.4873 30.1492 92.1269C30.1492 94.2416 28.7739 96.0309 26.87 96.6594C34.5745 103.222 43.8723 107.968 54.1018 110.242C53.8209 107.536 54.2571 104.719 55.5141 102.079C59.1556 94.456 68.2834 91.2286 75.9065 94.8664C81.6737 97.6206 84.9197 103.514 84.5869 109.521C98.6945 105.673 110.839 97.0624 119.19 85.5279C117.664 85.428 116.451 84.16 116.451 82.6036C116.451 80.9843 117.763 79.6719 119.383 79.6719C120.529 79.6719 121.523 80.3336 122.004 81.2948C125.797 75.0581 128.544 68.1189 129.997 60.7139C130.2 62.7768 130.307 64.8693 130.307 66.9876C130.307 101.95 101.966 130.291 67.0042 130.291C32.0421 130.291 3.70117 101.95 3.70117 66.9876C3.70117 62.7953 4.11524 58.6953 4.89529 54.7248Z" fill="#292A31"/>
</g>
<g id="Group_11">
<path id="Vector_8" d="M84.3963 111.03C84.1043 106.679 82.4074 102.826 79.6827 100.139C76.9802 97.4657 73.372 95.9093 69.7379 95.8649C66.1186 95.8206 62.4734 97.1071 59.6711 99.5915C56.854 102.072 54.865 105.677 54.2033 109.969C54.1848 110.08 54.0813 110.157 53.9704 110.139C53.8927 110.128 53.8299 110.069 53.8077 109.998C52.4398 105.714 53.6117 100.523 56.7837 96.8261C59.9225 93.0885 64.917 90.8666 69.8969 91.1254C74.873 91.3103 79.6383 93.9129 82.4222 97.8539C85.2762 101.739 86.0341 106.893 84.5183 111.045C84.5072 111.078 84.4703 111.093 84.437 111.082C84.4111 111.078 84.3963 111.056 84.3963 111.03Z" fill="#292A31"/>
</g>
</g>
<g id="Group_12">
<g id="Group_13" opacity="0.35">
<path id="Vector_9" d="M25.359 76.0085C30.984 76.0085 35.5441 71.4485 35.5441 65.8234C35.5441 60.1983 30.984 55.6382 25.359 55.6382C19.7339 55.6382 15.1738 60.1983 15.1738 65.8234C15.1738 71.4485 19.7339 76.0085 25.359 76.0085Z" fill="#292A31"/>
</g>
<g id="Group_14">
<path id="Vector_10" d="M34.916 69.2258C34.9752 66.2534 34.1471 63.7062 32.6831 61.8134C31.208 59.9501 29.2079 58.6857 27.0526 58.268C22.7456 57.4509 17.9581 59.4806 15.3813 64.8042C15.3295 64.9114 15.2038 64.9558 15.1003 64.904C15.0412 64.8744 15.0005 64.8227 14.9857 64.7598C14.2907 61.7246 15.6179 58.1903 18.2464 55.9685C20.8491 53.6874 24.6644 52.8039 28.0988 53.6431C31.5481 54.4416 34.5131 56.9371 35.8033 60.0832C37.1712 63.1812 36.8348 66.8338 35.0343 69.2701C35.0122 69.2997 34.9715 69.3034 34.9456 69.2849C34.9234 69.2664 34.916 69.2479 34.916 69.2258Z" fill="#292A31"/>
</g>
</g>
<g id="Group_15">
<g id="Group_16" opacity="0.35">
<path id="Vector_11" d="M60.6007 35.214C65.2009 35.214 68.93 31.4849 68.93 26.8848C68.93 22.2847 65.2009 18.5555 60.6007 18.5555C56.0006 18.5555 52.2715 22.2847 52.2715 26.8848C52.2715 31.4849 56.0006 35.214 60.6007 35.214Z" fill="#292A31"/>
</g>
<g id="Group_17">
<path id="Vector_12" d="M68.3957 29.6624C68.2848 27.1817 67.5047 25.2001 66.2958 23.762C65.0721 22.3572 63.5231 21.4329 61.8817 21.1261C60.2365 20.8192 58.5211 21.041 56.8871 21.7915C55.253 22.5642 53.7114 23.9062 52.4655 26.0541C52.4064 26.1576 52.2733 26.1946 52.1697 26.1355C52.1217 26.1059 52.0847 26.0578 52.0699 26.0098C51.3194 23.4921 52.362 20.4495 54.558 18.5271C56.7355 16.5492 59.9962 15.7766 62.9205 16.5012C65.8596 17.1888 68.3698 19.3405 69.4124 22.0318C70.5215 24.6752 70.1407 27.7621 68.5103 29.7067C68.4881 29.7363 68.4475 29.74 68.4179 29.7141C68.4031 29.6993 68.3957 29.6808 68.3957 29.6624Z" fill="#292A31"/>
</g>
</g>
<g id="Group_18">
<g id="Group_19" opacity="0.35">
<path id="Vector_13" d="M120.404 56.0521C124.443 56.0521 127.717 52.7781 127.717 48.7395C127.717 44.7008 124.443 41.4269 120.404 41.4269C116.366 41.4269 113.092 44.7008 113.092 48.7395C113.092 52.7781 116.366 56.0521 120.404 56.0521Z" fill="#292A31"/>
</g>
<g id="Group_20">
<path id="Vector_14" d="M121.736 41.6018C117.432 42.6961 115.621 45.7091 115.521 48.4412C115.492 49.8275 115.876 51.1991 116.675 52.4893C117.499 53.7759 118.774 54.9737 120.804 55.8795C120.919 55.9275 120.97 56.0569 120.922 56.1678C120.904 56.2159 120.863 56.2528 120.823 56.275C118.741 57.3989 115.861 56.9627 113.817 55.2953C111.721 53.6613 110.552 50.8516 110.793 48.1343C110.989 45.4023 112.589 42.8772 114.837 41.5796C117.059 40.2524 119.865 40.2302 121.762 41.4798C121.791 41.4983 121.799 41.5426 121.78 41.5722C121.765 41.587 121.751 41.5981 121.736 41.6018Z" fill="#292A31"/>
</g>
</g>
<g id="Group_21" opacity="0.7">
<path id="Vector_15" d="M126.556 74.4933C126.556 39.5312 98.2154 11.1903 63.2533 11.1903C39.944 11.1903 19.5811 23.7895 8.59375 42.5479C18.1578 19.7266 40.7055 3.69287 67.002 3.69287C101.964 3.69287 130.305 32.0338 130.305 66.9959C130.305 78.6487 127.152 89.5658 121.662 98.9413C124.815 91.4217 126.556 83.1627 126.556 74.4933Z" fill="white"/>
</g>
<g id="Group_22">
<path id="Vector_16" d="M67 134C30.0563 134 0 103.944 0 67C0 30.0563 30.0563 0 67 0C103.944 0 134 30.0563 134 67C134 103.944 103.947 134 67 134ZM67 7.39022C34.134 7.39022 7.39392 34.1303 7.39392 66.9963C7.39392 99.8623 34.134 126.602 67 126.602C99.866 126.602 126.606 99.8623 126.606 66.9963C126.606 34.1303 99.8697 7.39022 67 7.39022Z" fill="#292A31"/>
</g>
</g>
</svg>
